<svg xmlns="http://www.w3.org/2000/svg" xmlns:xlink="http://www.w3.org/1999/xlink" width="100%" height="100%"><defs>  <clipPath id="clipRays">    <rect x="5" y="80" width="100" height="100"/>    <circle cx="170" cy="100" r="50"/>    <polygon points="300 30 350 130 250 130" />    <ellipse cx="425" cy="100" rx="50" ry="40"/>    <rect x="494" y="80" width="100" height="100"/>  </clipPath>  <mask id="maskRays">    <rect x="5" y="80" width="100" height="100" fill="red" />    <circle cx="170" cy="100" r="50" fill="purple" />    <polygon points="300 30 350 130 250 130" fill="white" />    <ellipse cx="425" cy="100" rx="50" ry="40" fill="black" />    <rect x="494" y="80" width="100" height="100" fill="orange" />  </mask>  <g id="rays">    <path d="m300,12.36c20,500,20,500,20,500h-40z"/>    <path d="M300,13.75c670.2,218.6,670.2,218.6,670.2,218.6l19.99-42.94z"/>    <path d="M300,12.36c-670.2,218.6-670.2,218.6-670.2,218.6l-19.99-42.94z"/>    <g id="RaysRight">      <path d="M300,13.51c548.1,268.4,548.1,268.4,548.1,268.4s23.52-35.35,23.52-35.35-571.7-233-571.7-233" fill="red"/>      <path d="M300,13.31c452.8,307.3,452.8,307.3,452.8,307.3s26.29-29.41,26.29-29.41-479.1-277.8-479.1-277.8" fill="green"/>      <path d="M300,13.14c365.4,342.9,365.4,342.9,365.4,342.9s28.82-23.98,28.82-23.98-394.2-318.9-394.2-318.9" fill="blue"/>      <path d="M300,12.97c282.9,376.5,282.9,376.5,282.9,376.5s31.22-18.84,31.22-18.84-314-357.7-314-357.7" fill="lime"/>      <path d="M300,12.81c203.7,408.8,203.7,408.8,203.7,408.8s33.51-13.91,33.51-13.91-237.2-394.9-237.2-394.9" fill="purple"/>      <path d="M300,12.66c127.1,440,127.1,440,127.1,440s35.73-9.153,35.73-9.153-162.9-430.9-162.9-430.9" fill="orange"/>      <path d="M300,12.51c52.68,470.4,52.68,470.4,52.68,470.4s37.89-4.522,37.89-4.522-90.57-465.8-90.57-465.8" fill="yellow"/>    </g>    <use id="RaysLeft" xlink:href="#RaysRight" transform="translate(600) scale(-1, 1)" />  </g></defs>   <!-- Light Ray 1 -->  <use xlink:href="#rays" x="0" y="0" clip-path="url(#clipRays)"/>  <!-- Light Ray 2 -->  <use xlink:href="#rays" x="0" y="0" transform="scale(1 -1) translate(0 -380)" mask="url(#maskRays)"/></svg>