<svg xmlns='http://www.w3.org/2000/svg' 
     xmlns:xlink='http://www.w3.org/1999/xlink' 
  width="100%" height="100%" 
  onload="startup(evt)"
>
<script xlink:href="script/rect.js" type="application/ecmascript"/>
<defs>
  <pattern id="gridPattern" width="10" height="10" patternUnits="userSpaceOnUse">
    <path d="M10,0 H0 V10" fill="none" stroke="gray" stroke-width="0.25"/>
  </pattern>
  <marker id="tick" viewBox="-10 -5 10 10" markerUnits="strokeWidth"
          markerWidth="10" markerHeight="10" orient="auto">
    <path d="M0,-2 V2" stroke="black"/>
  </marker>
  <marker id="endArrow" viewBox="-10 -5 10 10" markerUnits="strokeWidth"
          markerWidth="10" markerHeight="10" orient="auto">
    <path d="M-10,-2 L0,0 -10,2 z" fill="black" stroke="none"/>
  </marker>
  <marker id="startDimArrow" viewBox="0 -5 10 10" markerUnits="strokeWidth"
          markerWidth="10" markerHeight="10" orient="auto">
    <path d="M0,0 L10,-2 10,2 z M0,-5 L0,5" stroke="black" />
  </marker>
  <marker id="endDimArrow" viewBox="-10 -5 10 10" markerUnits="strokeWidth"
          markerWidth="10" markerHeight="10" orient="auto">
    <path d="M-10,-2 L0,0 -10,2 z M0,-5 L0,5" stroke="black" />
  </marker>
</defs>
<!-- background grid -->
<rect id="grid" width="100%" height="100%" stroke="gray" stroke-width="0.25" fill="url(#gridPattern)" /> 

<!-- example -->
<rect x="50" y="50" width="300" height="170" 
  stroke="black" stroke-width="0.75" stroke-dasharray="6,3,2,3" fill="none" />
<rect x="50" y="50" width="300" height="170" rx="90" ry="50" 
  stroke="darkseagreen" stroke-width="10" fill="lightgray" fill-opacity="0.6" />

  <!-- grid decoratation -->
<line x1="270" y1="100" x2="270" y2="50" marker-end="url(#endArrow)" stroke="black" />
<line x1="270" y1="100" x2="350" y2="100" marker-end="url(#endArrow)" stroke="black" />
<line x1="50" y1="240" x2="350" y2="240" marker-start="url(#startDimArrow)" marker-end="url(#endDimArrow)" stroke="black" />
<line x1="370" y1="50" x2="370" y2="220" marker-start="url(#startDimArrow)" marker-end="url(#endDimArrow)" stroke="black" />
</svg>
