<?xml version="1.0" ?>
<svg xmlns='http://www.w3.org/2000/svg' xmlns:xlink='http://www.w3.org/1999/xlink' 
    width="100%" height="100%" viewBox="0 0 400 120" preserveAspectRatio="xMidyMid meet">
<defs>
  <pattern id="gridPattern" width="10" height="10" patternUnits="userSpaceOnUse">
    <path d="M10,0 H0 V10" fill="none" stroke="gray" stroke-width=".5"/>
  </pattern>
  <marker id="tick" viewBox="-10 -5 10 10" markerUnits="strokeWidth"
          markerWidth="10" markerHeight="10" orient="auto">
    <path d="M0,-2 V2" stroke="black"/>
  </marker>
  <marker id="endArrow" viewBox="-10 -5 10 10" markerUnits="strokeWidth"
          markerWidth="10" markerHeight="10" orient="auto">
    <path d="M-10,-2 L0,0 -10,2 z" fill="black" stroke="none"/>
  </marker>
  <marker id="startDimArrow" viewBox="0 -5 10 10" markerUnits="strokeWidth"
          markerWidth="10" markerHeight="10" orient="auto">
    <path d="M0,0 L10,-2 10,2 z M0,-5 L0,5" stroke="black" />
  </marker>
  <marker id="endDimArrow" viewBox="-10 -5 10 10" markerUnits="strokeWidth"
          markerWidth="10" markerHeight="10" orient="auto">
    <path d="M-10,-2 L0,0 -10,2 z M0,-5 L0,5" stroke="black" />
  </marker>
</defs>

<!-- background grid -->
<rect id="grid" width="100%" height="100%" stroke="gray" stroke-width=".5"
      fill="url(#gridPattern)" /> 

<!-- example -->
<path stroke="darkseagreen" stroke-width="4" fill="lightgray" 
      stroke-linecap="round"
      d="M 40,80
         V 60 l 20,-20
         q 20,-20 40,0 20,20 40,0
         l 20,20
         V 80
         H 40
         z" />

<path transform="translate(160,0)"
      stroke="darkseagreen" stroke-width="4" fill="lightgray" 
      stroke-linecap="round"
      d="M 40,80
         V 60 L 60,40
         Q 80,20 100,40 T 140,40
         L 160,60
         V 80
         H 40
         Z" />

</svg>