<?xml version="1.0" ?>
<svg xmlns='http://www.w3.org/2000/svg' xmlns:xlink='http://www.w3.org/1999/xlink'
	width="420" height="300" viewBox="0 0 112 80" style="font-family:Helvetica,serif;">
<defs>
<pattern id="Pat01" width="10" height="10" patternUnits="userSpaceOnUse">
	<rect width="10" height="10" fill="#FFFFFF" stroke="#000000" stroke-width="0.1"/>
</pattern>
<marker id="Marker01" viewBox="0 0 10 10" refX="0" refY="5" 
     markerUnits="strokeWidth" markerWidth="10" markerHeight="6" 
     orient="auto">
  <path d="M 0 0 L 15 5 L 0 10 z" />
</marker>
<marker id="Marker02" viewBox="0 -5 10 10" refX="0" refY="0" 
     markerUnits="strokeWidth" markerWidth="10" markerHeight="6" 
     orient="auto">
  <path d="M 0 0l 15 -5 l 0 10z"/>
</marker>
<circle id="dot" cx="0" cy="0" r="1" stroke="black" stroke-width="0.3" fill="white"/>
<g id="origin">
<path d="M0,0 h8" stroke-width="0.3" marker-end="url(#Marker01)"/>
<path d="M0,0 v8" stroke-width="0.3" marker-end="url(#Marker01)"/>
</g>
</defs>
<rect x="0" y="0" width="101" height="61" fill="url(#Pat01)"/>
<path d="M40,40 A25 15 0 0 1 60,20" stroke-width="1" stroke="black" fill="none"/>
<path d="M40,40 A25 15 0 1 0 60,20" stroke-width="1" stroke="black" fill="none"/>
<path d="M40,40 A25 15 0 1 1 60,20" stroke-width="1" stroke="black" fill="none"/>
<path d="M40,40 A25 15 0 0 0 60,20" stroke-width="1" stroke="black" fill="none"/>
<path d="M43,25 l5 -2 -3.5 4z" stroke-width="1" stroke="black" fill="black"/>
<path d="M54,34 l5 -2 -3.5 4z" stroke-width="1" stroke="black" fill="black"/>
<path d="M54,47 l5 3 -6 0z" stroke-width="1" stroke="black" fill="black"/>
<path d="M27,38 l-5 -1 4 3z" stroke-width="1" stroke="black" fill="black"/>

<use x="40" y="40" xlink:href="#dot"/>
<use x="60" y="20" xlink:href="#dot"/>

<text x="6" y="6" font-size="4" text-anchor="middle">(0,0)</text>
<text x="25" y="46" font-size="4" text-anchor="middle">current point</text>
<text x="70" y="16" font-size="4" text-anchor="middle">new point</text>
<text x="30" y="8" font-size="4" text-anchor="middle">fl=1,fs=1</text>
<text x="68" y="56" font-size="4" text-anchor="middle">fl=1,fs=0</text>
<text x="68" y="36" font-size="4" text-anchor="middle">fl=0,fs=0</text>
<text x="30" y="28" font-size="4" text-anchor="middle">fl=0,fs=1</text>

</svg>
