<?xml version="1.0" ?>
<svg xmlns='http://www.w3.org/2000/svg' xmlns:xlink='http://www.w3.org/1999/xlink' 
		 width="440" height="340" viewBox="0 0 176 136">
<defs>
<pattern id="Pat01" width="10" height="10" patternUnits="userSpaceOnUse">
	<rect width="10" height="10" fill="#FFFFFF" stroke="#000000" stroke-width="0.1"/>
</pattern>
<circle id="dot" cx="0" cy="0" r="2" stroke="black" stroke-width="1" fill="white"/>
<circle id="dot2" cx="0" cy="0" r="2" stroke="black" stroke-width="1" fill="lightGray"/>
<circle id="dot3" cx="0" cy="0" r="2" stroke="black" stroke-width="1" stroke-dasharray="1 1" fill="white"/>
</defs>
<rect x="0" y="0" width="201" height="151" fill="url(#Pat01)"/>
<path d="M10,70 Q50,20 50,70 T90,70 T130,70 T170,70" stroke="black" fill="none"/>
<path d="M10,70 L50,20 L50,120 L130,20 L130,120 L170,70" fill="none" stroke="gray" stroke-dasharray="2 2"/>
<use x="50" y="20" xlink:href="#dot"/>
<use x="10" y="70" xlink:href="#dot2"/>
<use x="50" y="70" xlink:href="#dot2"/>
<use x="90" y="70" xlink:href="#dot2"/>
<use x="130" y="70" xlink:href="#dot2"/>
<use x="170" y="70" xlink:href="#dot2"/>
<use x="130" y="20" xlink:href="#dot3"/>
<use x="130" y="120" xlink:href="#dot3"/>
<use x="50" y="120" xlink:href="#dot3"/>
</svg>