<svg	xmlns="http://www.w3.org/2000/svg" width="100%"
xmlns:xlink="http://www.w3.org/1999/xlink" 
onload="startup()"
>
<script><![CDATA[
xmlns="http://www.w3.org/2000/svg"
xlink="http://www.w3.org/1999/xlink" 
Root=document.documentElement
function Color(){
	var R=parseInt(Math.random()*255)
	var G=parseInt(Math.random()*255)
	var B=parseInt(Math.random()*255)
	return "rgb("+R+","+G+","+B+")"
}
function startup(){
	var Stars=document.getElementsByTagName("path")
	var R=document.getElementById("R")
	BB=R.getBBox()
	for (var i=0;i<60;i++){
		var rS=Math.floor(Stars.length*Math.random())
		var rx=Math.floor((BB.width-300)*Math.random()/2)
		var ry=Math.floor((BB.height-600)*Math.random()/2)
		SC=Stars.item(rS)
		var StarClone=SC.cloneNode("false")
		StarClone.setAttribute("fill-rule","evenodd")
		StarClone.setAttribute("fill",Color())
		
StarClone.setAttribute("transform","translate("+rx+","+ry+")")
		Root.appendChild(StarClone)
	}
	
}
]]></script>
<defs>
<path fill = "#63f721" d = "M 114.5 290.5 Q 213 280 114.5 270 Q 16 260 
110.5 290.5 Q 205 321 119 271.5 Q 33 222 106.5 288.5 Q 180 355 121.5 
274.5 Q 63 194 103.5 285 Q 144 376 123.5 278.5 Q 103 181 103 280.5 Q 103 
380 123.5 282.5 Q 144 185 104 276 Q 64 367 122 286.5 Q 180 206 106.5 
272.5 Q 33 339 119 289.5 Q 205 240 110.5 270.5 Q 16 301 114.5 290.5 z" 
id = "P18" stroke = "black" stroke-width = "1"  />
<path fill = "#837fc0" d = "M 96 110.5 Q 191 132 96 154 Q 1 176 77.5 115 
Q 154 54 111.5 142 Q 69 230 69 132.5 Q 69 35 111.5 123 Q 154 211 77.5 
150 Q 1 89 96 110.5 z" id = "P9" stroke = "black" stroke-width = "1"  />
<path fill = "#6fcf96" d = "M 347 442 Q 408 393 347 344.5 Q 286 296 252 
366.5 Q 218 437 294.5 454.5 Q 371 472 371 393.5 Q 371 315 294.5 332.5 Q 
218 350 252 420.5 Q 286 491 347 442 z" id = "P47" stroke = "black" 
stroke-width = "1" />
<path fill = "#d17943" d = "M 239 313.5 Q 329 284 239 255 Q 149 226 
204.5 303 Q 260 380 260 284.5 Q 260 189 204.5 266 Q 149 343 239 313.5 z" 
id = "P3" stroke = "black" stroke-width = "1"   />
<path fill = "#3b63db" d = "M 193.5 112 Q 290 129 193.5 146.5 Q 97 164 
182 114.5 Q 267 65 204 140.5 Q 141 216 174.5 123.5 Q 208 31 208 129.5 Q 
208 228 174 135.5 Q 140 43 203.5 118.5 Q 267 194 182 144.5 Q 97 95 193.5 
112 z" id = "P1" stroke = "black" stroke-width = "1"   />
<path fill = "#c44c80" d = "M 374 192.5 Q 459 157 374 122 Q 289 87 324.5 
172 Q 360 257 395 172 Q 430 87 344.5 122.5 Q 259 158 344.5 193 Q 430 228 
394.5 142.5 Q 359 57 324 142.5 Q 289 228 374 192.5 z" id = "P6" stroke = 
"black" stroke-width = "1"  />
</defs>
<rect id="R" x="0" y="0" width="100%" height="100%" fill="#ddd"/>
</svg>
