<?xml version="1.0" encoding="UTF-8"?>
<svg xmlns="http://www.w3.org/2000/svg">
	<!--
	<path d="M 100,200 Q 200,400 300,200" fill="none" stroke="blue"/>
	<path d="M 100,200 L 200,400 300,200" fill="none" stroke="red"/>
-->
<path id="H" fill="#bbb" fill-rule="evenodd" d="M 70,140 L 150,0 200,100 L 40,100 100,0 L 170,140 70,140"/>
<path id="X" fill="#b42" fill-rule="evenodd" d="M 70,140 Q 150,0 200,100 Q 40,100 100,0 Q 170, 140 70,140"/>
<path fill="#c53" fill-rule="evenodd" opacity=".5" d="M 70 140 C 17.5,140 150,0 200,100 C 220,140 40,100 100,0 C 127,-47 170,140 70,140"/>
</svg>